<svg width="1172" height="505" viewBox="0 0 1172 505" fill="none" xmlns="http://www.w3.org/2000/svg">
<path d="M0 198C0 175.909 17.9086 158 40 158H586V465C586 487.091 568.091 505 546 505H40C17.9086 505 0 487.091 0 465V198Z" fill="white"/>
<path d="M586 40C586 17.9086 603.909 0 626 0H1132C1154.09 0 1172 17.9086 1172 40V396C1172 418.091 1154.09 436 1132 436H586V40Z" fill="white"/>
<path d="M626 436C603.909 436 586 453.909 586 476V436H626Z" fill="white"/>
<path d="M546 158C568.091 158 586 140.091 586 118V158H546Z" fill="white"/>
</svg>
